<?xml version="1.0" standalone="no"?>
<!DOCTYPE svg PUBLIC "-//W3C//DTD SVG 20010904//EN"
 "http://www.w3.org/TR/2001/REC-SVG-20010904/DTD/svg10.dtd">
<svg version="1.1" xmlns="http://www.w3.org/2000/svg"
 width="1024" height="1024" viewBox="0 0 1024 1024"
 preserveAspectRatio="xMidYMid meet">
<title>ExifTool by Phil Harvey - Logo</title>
<style>
    path { fill: black; }
    @media (prefers-color-scheme: dark) {
        path { fill: white; }
    }
</style>
<g transform="translate(0,1024) scale(0.1,-0.1)" stroke="none">
<path d="M5376 9418 c-8 -13 -21 -46 -29 -74 -19 -63 -49 -124 -73 -146 -33
-29 -96 -38 -266 -38 -165 0 -167 0 -186 25 -10 13 -22 45 -26 71 -3 26 -11
53 -17 60 -9 11 -76 14 -341 14 l-330 0 -29 -29 -29 -29 0 -572 0 -572 29 -29
29 -29 320 0 319 0 10 23 c6 12 16 48 23 79 21 103 49 117 244 118 120 0 220
-19 272 -53 37 -25 76 -91 105 -178 14 -46 22 -102 26 -201 l6 -138 98 0 99 0
0 -1080 0 -1080 -80 0 -80 0 3 -2037 c3 -2285 -5 -2064 78 -2233 85 -171 259
-302 446 -335 145 -26 260 -17 374 29 159 64 275 166 337 296 78 163 72 -10
72 2259 l0 2031 -80 0 -80 0 0 1075 0 1075 90 0 90 0 0 84 c0 128 42 299 128
524 l35 94 31 -6 c17 -3 98 -15 179 -25 274 -37 443 -94 783 -264 241 -121
358 -162 423 -150 53 10 54 17 14 98 -36 74 -260 407 -339 505 -143 178 -391
396 -592 519 -123 75 -370 193 -482 229 -52 17 -174 48 -270 69 l-175 37 -572
4 -572 3 -15 -23z m1094 -228 c265 -23 488 -86 705 -199 260 -134 452 -270
638 -450 64 -63 115 -116 113 -118 -5 -6 -67 29 -191 108 -207 130 -444 239
-614 282 -76 19 -114 21 -321 22 -229 0 -236 -1 -282 -24 -51 -26 -82 -26
-514 -5 -122 6 -131 6 -139 -12 -14 -35 -18 -355 -5 -464 6 -58 14 -142 17
-187 l6 -83 301 0 302 0 28 98 c26 86 81 241 106 297 5 11 20 45 34 76 33 78
90 139 128 139 28 0 30 -2 25 -29 -4 -16 -25 -67 -48 -113 -22 -46 -49 -105
-59 -133 -9 -27 -40 -115 -69 -194 -39 -111 -51 -158 -51 -203 l0 -58 -454 0
-453 0 -5 84 c-5 75 -24 136 -49 156 -4 3 -22 30 -42 60 -46 74 -156 175 -221
205 -128 58 -345 76 -504 41 -45 -11 -85 -17 -87 -14 -13 12 10 36 63 68 51
31 68 35 170 44 120 10 204 2 297 -29 64 -22 255 -114 272 -131 16 -16 43 -19
43 -5 0 16 -71 135 -107 179 -19 23 -69 66 -111 95 l-77 52 -267 3 -268 3 0
92 0 92 233 0 c244 0 287 6 387 56 64 31 150 139 150 189 0 20 3 20 403 20
221 0 454 -5 517 -10z m-1920 -485 l0 -405 -135 0 -135 0 0 55 0 55 105 0 105
0 0 130 c0 76 -4 130 -10 130 -5 0 -21 -5 -35 -12 -22 -10 -25 -17 -25 -61 0
-72 -31 -133 -72 -141 -74 -15 -68 -44 -68 324 l0 330 135 0 135 0 0 -405z
m1590 -1205 l0 -170 -66 0 -67 0 6 -75 c7 -101 37 -162 88 -184 l39 -16 0
-737 0 -738 -145 0 -145 0 0 1045 0 1045 145 0 145 0 0 -170z m260 -880 l0
-1050 -30 0 -30 0 0 1050 0 1050 30 0 30 0 0 -1050z m-160 -1615 l0 -325 -195
0 -195 0 0 -85 0 -85 205 0 205 0 0 -80 0 -80 -205 0 -205 0 0 -85 0 -85 205
0 205 0 0 -75 0 -75 -205 0 -205 0 0 -85 0 -85 205 0 205 0 0 -75 0 -75 -205
0 -205 0 0 -85 0 -85 205 0 205 0 0 -75 0 -75 -205 0 -205 0 0 -85 0 -85 205
0 205 0 0 -75 0 -75 -205 0 -205 0 0 -85 0 -85 205 0 205 0 0 -75 0 -75 -205
0 -205 0 0 -85 0 -85 205 0 205 0 0 -70 0 -70 -205 0 -205 0 0 -85 0 -85 200
0 200 0 0 -160 0 -161 -59 7 c-84 9 -147 -14 -220 -82 -210 -194 -100 -504
179 -504 133 0 243 73 281 187 21 65 21 71 10 287 -6 122 -11 272 -11 333 l0
113 36 15 c20 8 38 15 40 15 1 0 5 -100 7 -222 2 -123 11 -288 21 -368 9 -80
15 -168 12 -196 -13 -118 -104 -236 -237 -308 -66 -36 -80 -40 -149 -40 -95 0
-171 23 -246 73 -77 52 -132 118 -163 200 l-26 66 -3 1903 -2 1902 260 0 260
0 0 -325z m270 -16 c0 -321 -1 -341 -17 -334 -10 3 -30 9 -45 12 l-28 6 0 328
0 329 45 0 45 0 0 -341z m-3 -665 c-2 -2 -21 2 -43 9 l-39 14 -3 84 -3 84 43
15 43 15 3 -109 c1 -60 1 -110 -1 -112z m0 -320 c-2 -2 -21 2 -43 9 l-39 14 0
83 c0 80 1 83 24 87 13 2 31 7 40 12 14 9 16 -1 19 -96 1 -58 1 -107 -1 -109z
m0 -320 c-2 -2 -21 2 -43 9 l-39 14 -3 79 -3 79 43 15 43 15 3 -104 c1 -57 1
-105 -1 -107z m0 -320 c-2 -2 -21 2 -43 9 l-39 14 0 83 c0 80 1 83 24 87 13 2
31 7 40 12 14 9 16 -1 19 -96 1 -58 1 -107 -1 -109z m0 -320 c-2 -2 -21 2 -43
9 l-39 14 0 83 c0 80 1 83 24 87 13 2 31 7 40 12 14 9 16 -1 19 -96 1 -58 1
-107 -1 -109z m0 -320 c-2 -2 -21 2 -43 9 l-39 14 0 83 c0 80 1 83 24 87 13 2
31 7 40 12 14 9 16 -1 19 -96 1 -58 1 -107 -1 -109z m0 -310 c-2 -2 -21 2 -43
9 l-39 14 0 78 c0 74 1 78 24 82 13 2 31 7 40 12 14 9 16 -1 19 -91 1 -55 1
-102 -1 -104z m-275 -691 c59 -29 80 -133 37 -180 -53 -56 -126 -69 -184 -33
-32 20 -65 72 -65 104 0 22 34 89 54 105 37 31 102 33 158 4z"/>
<path d="M3475 9274 c-137 -25 -260 -47 -272 -50 -20 -4 -23 -10 -23 -57 0
-28 7 -81 16 -117 18 -76 74 -357 74 -370 0 -6 -32 -26 -72 -46 -40 -20 -123
-65 -184 -99 l-113 -63 -68 67 c-37 36 -123 117 -190 179 l-121 112 -306 -280
-305 -281 48 -67 c103 -144 203 -276 243 -318 l29 -31 -51 -59 c-29 -33 -75
-89 -102 -126 -28 -38 -53 -68 -56 -68 -2 0 -105 34 -228 75 -123 41 -226 75
-229 75 -3 0 -5 -5 -5 -11 0 -6 -53 -109 -119 -228 -65 -119 -143 -261 -173
-317 l-54 -100 73 -65 c147 -128 308 -259 326 -265 16 -5 18 -12 11 -42 -4
-21 -16 -95 -28 -166 l-21 -128 -135 -34 c-74 -19 -184 -44 -245 -57 l-110
-22 0 -345 0 -345 240 -69 c132 -38 241 -69 242 -70 1 0 9 -45 18 -100 9 -54
25 -122 35 -151 l18 -52 -76 -64 c-41 -35 -107 -87 -146 -114 -39 -28 -104
-74 -143 -104 l-72 -53 66 -127 c88 -167 251 -466 280 -514 22 -35 25 -36 46
-23 12 8 107 44 212 81 104 36 205 75 223 85 18 11 35 20 37 20 3 0 18 -28 35
-62 35 -70 66 -115 118 -170 22 -24 32 -41 26 -50 -4 -7 -75 -118 -157 -247
l-149 -234 254 -253 253 -253 228 165 c201 145 267 184 267 156 0 -12 116 -85
203 -128 l77 -39 -6 -175 c-3 -96 -12 -227 -19 -290 -7 -63 -11 -120 -8 -126
5 -14 241 -92 408 -135 60 -15 149 -39 197 -53 49 -13 90 -21 92 -18 2 4 9 25
15 47 7 22 53 137 103 255 l90 215 160 0 159 0 5 -25 c3 -14 28 -90 56 -170
28 -80 66 -188 83 -240 18 -52 38 -96 44 -98 6 -2 48 1 94 7 45 6 174 16 287
21 113 6 220 13 238 16 l32 6 0 454 c0 452 0 454 -21 454 -11 0 -64 -11 -117
-25 -269 -68 -648 -94 -906 -61 -344 45 -570 112 -855 255 -121 61 -337 203
-466 307 -321 257 -683 775 -852 1219 -36 93 -107 367 -122 472 -22 143 -33
459 -21 596 28 336 110 631 252 912 281 557 626 930 1148 1243 122 73 411 195
493 208 l37 7 0 393 0 394 -47 -1 c-27 0 -160 -21 -298 -45z"/>
<path d="M7814 9185 c-6 -15 50 -95 67 -95 6 0 58 -46 116 -102 174 -170 373
-436 492 -660 53 -99 147 -342 157 -408 11 -70 -18 -94 -186 -149 -154 -50
-165 -48 -395 69 -108 55 -283 133 -388 174 -230 88 -255 96 -422 136 -71 17
-135 33 -142 35 -12 4 -70 -158 -93 -259 -40 -180 -40 -154 -40 -2888 l0
-2618 395 0 395 0 0 2190 0 2190 715 0 715 0 0 1200 0 1200 -690 0 c-601 0
-691 -2 -696 -15z"/>
<path d="M3780 8313 c-27 -10 -183 -84 -270 -128 -425 -214 -809 -576 -1070
-1009 -114 -191 -247 -525 -290 -728 -81 -387 -63 -802 50 -1167 131 -424 437
-906 744 -1170 197 -169 311 -246 516 -349 219 -110 319 -147 535 -197 224
-53 444 -72 638 -57 211 16 504 79 600 128 l27 15 0 409 0 410 -1055 0 -1055
0 0 435 0 435 1054 0 1055 0 3 186 3 186 28 24 c22 19 39 24 83 24 l54 0 0
305 0 305 -1140 0 -1140 0 0 435 0 435 1130 0 1130 0 0 140 0 140 -57 0 c-45
0 -63 5 -90 26 -54 41 -60 62 -66 259 -4 99 -9 190 -12 201 -8 26 -38 41 -122
58 l-63 14 -16 -34 c-23 -49 -96 -111 -172 -147 l-67 -32 -318 -3 c-358 -3
-415 4 -540 70 l-62 33 -3 178 c-3 182 -3 184 -42 170z"/>
</g>
</svg>
